<svg xmlns="http://www.w3.org/2000/svg" data-v-0dd9719b="" version="1.0" viewBox="0 0 187.088 99.347" color-interpolation-filters="sRGB">
  <defs/>
  <g data-v-0dd9719b="" fill="#333" class="icon-text-wrapper icon-svg-group iconsvg" transform="matrix(1, 0, 0, 1, 3.356491, 5.549622)">
    <g class="iconsvg-imagesvg" transform="translate(59.714996337890625,0)">
      <rect fill="#333" fill-opacity="0" stroke-width="2" x="0" y="0" width="60" height="57.24972329300408" class="image-rect"/>
      <svg x="0" y="0" width="60" height="57.24972329300408" filtersec="colorsb1346379238" class="image-svg-svg primary" style="overflow: visible;">
        <svg xmlns="http://www.w3.org/2000/svg" viewBox="-0.008697493933141232 0.04599284753203392 110.04867553710938 105.00401306152344">
          <path d="M48.66 98.69H20.43c-1.57 0-3 .17-3.91 1.64-.61.94-.6 1.56.72 1.61h56c.94 0 2.62-.65 2.66.83 0 1.28-1.23 2.28-2.8 2.28h-8.24c-16.32 0-32.64-.06-49 0-2.43 0-3.41-.86-3.88-3.07Q7.18 79.17 2.3 56.25C1.61 53 1 49.74.14 46.52a3.38 3.38 0 0 1 .69-3.22q7.51-9.28 15-18.58c.46-.57.91-1.43 1.74-1.16.66.22.52 1.14.65 1.77 2.42 11.29 4.81 22.59 7.24 33.88 1.5 7 3.14 13.93 4.52 20.94.44 2.2 1.45 2.7 3.53 2.7q27.09-.1 54.2 0c1.19 0 3.4-1 3.5.89S89.26 86 87.46 86h-56.7c-1.57 0-2.94.13-3.87 1.66-.61 1-.35 1.37.68 1.44.82.06 1.66 0 2.49 0h53c1.08 0 3-.78 3.11.89s-1.74 2.28-3.5 2.26c-5.41-.05-10.82 0-16.24 0H25.97c-1.53 0-3 0-4 1.47-.76 1.06-.73 1.67.7 1.76h54.7c1.24 0 3.49-.9 3.57.92.08 2.19-2.18 2.23-4 2.22q-14.16.04-28.28.07z" fill="#23b5e8"/>
          <path d="M51.15 19.31h28.23a5.55 5.55 0 0 0 2.21-.15c1-.45 2.14-1.25 2-2.33s-1.52-.65-2.34-.65c-18.32 0-36.63 0-54.95-.05-.85 0-2.35.64-2.45-.78s1.09-2.19 2.46-2.39a15.17 15.17 0 0 1 2.24-.06h56c.89 0 1.85.24 2.66-.37s1.88-1.24 1.63-2.28-1.45-.48-2.2-.48c-18.15 0-36.31 0-54.46-.07-1 0-3 .81-3-1 0-1.61 1.67-2.24 3.37-2.23h57.24c1 0 2 .22 2.88-.51s1.54-1.35 1.28-2.24-1.33-.37-2-.37c-18.4 0-36.81 0-55.21-.06-.91 0-2.62.74-2.59-.83A2.79 2.79 0 0 1 36.89.05h57.45C96.48 0 97.55.39 98 2.81c2.2 11.08 4.65 22.11 7 33.15 1.55 7.14 3.16 14.27 4.77 21.4a5.72 5.72 0 0 1-1.16 5.52c-4.83 5.7-9.43 11.6-14.17 17.39-.47.58-.76 1.71-1.8 1.37-.75-.25-.86-1.18-1-1.9-1.85-8.7-3.66-17.4-5.51-26.09C84.11 43.81 82 34 79.91 24.16c-.33-1.55-1.37-1.64-2.62-1.64H20.81c-.77 0-2.17.6-2.26-.59a2.65 2.65 0 0 1 2.12-2.5 8.13 8.13 0 0 1 2-.1z" fill="#147dc8"/>
        </svg>
      </svg>
    </g>
    <g transform="translate(0,64.24972534179688)">
      <g data-gra="path-name" fill-rule="" class="tp-name iconsvg-namesvg">
        <g transform="scale(1)">
          <path d="M8.87-12.39L9.07-12.39Q9.78-13.06 10.66-13.64L10.66-13.64Q11.44-14.11 12.52-14.52 13.6-14.92 14.96-14.92L14.96-14.92Q16.58-14.92 17.38-14.18 18.17-13.43 18.27-12.35L18.27-12.35 18.48-12.35Q19.26-13.06 20.17-13.64L20.17-13.64Q20.95-14.11 22-14.52 23.05-14.92 24.23-14.92L24.23-14.92Q25.99-14.92 27.09-13.96 28.19-12.99 28.19-11.47L28.19-11.47Q28.19-10.69 27.92-9.41 27.65-8.12 27.31-6.6L27.31-6.6 25.89 0 19.22 0 21.05-8.83Q21.15-9.34 21.25-9.81 21.35-10.29 21.35-10.59L21.35-10.59Q21.35-11.07 21.08-11.39 20.81-11.71 20.3-11.71L20.3-11.71Q19.66-11.71 19.1-11.25 18.54-10.8 18.24-10.49L18.24-10.49 16.04 0 9.71 0 11.57-8.83Q11.64-9.27 11.74-9.73 11.84-10.19 11.84-10.56L11.84-10.56Q11.84-11.07 11.59-11.39 11.34-11.71 10.83-11.71L10.83-11.71Q10.22-11.71 9.66-11.27 9.1-10.83 8.8-10.52L8.8-10.52 6.57 0-0.34 0 2.74-14.55 8.26-14.55 8.87-12.39ZM30.93-10.29L31.57-13.3Q33.3-14.15 35.11-14.53 36.92-14.92 39.15-14.92L39.15-14.92Q41.32-14.92 42.74-14.59 44.16-14.25 45.01-13.6 45.85-12.96 46.19-12.08 46.53-11.2 46.53-10.08L46.53-10.08Q46.53-9.44 46.45-8.7 46.36-7.95 46.26-7.45L46.26-7.45 44.67 0 39.22 0 38.61-2.17 38.41-2.17Q37.33-0.98 35.89-0.36 34.45 0.27 33.03 0.27L33.03 0.27Q32.22 0.27 31.44 0.03 30.66-0.2 30.05-0.69 29.44-1.18 29.07-1.95 28.7-2.71 28.7-3.79L28.7-3.79Q28.7-5.55 29.66-6.58 30.63-7.61 32.2-8.14 33.77-8.66 35.75-8.8 37.73-8.93 39.73-8.93L39.73-8.93Q39.8-9.27 39.9-9.9 40-10.52 40-11L40-11Q40-11.61 39.68-12.13 39.36-12.66 38.34-12.66L38.34-12.66Q37.16-12.66 36.6-11.96 36.04-11.27 35.87-10.29L35.87-10.29 30.93-10.29ZM38.82-4.74L39.36-7.34 38.75-7.34Q37.77-7.34 37.07-7.09 36.38-6.84 35.96-6.43 35.53-6.02 35.33-5.52 35.13-5.01 35.13-4.5L35.13-4.5Q35.13-3.69 35.55-3.28 35.97-2.88 36.55-2.88L36.55-2.88Q37.26-2.88 37.95-3.38 38.65-3.89 38.82-4.74L38.82-4.74ZM62.61-10.29L58.21-10.29Q58.24-10.46 58.27-10.63 58.31-10.8 58.31-11L58.31-11Q58.31-11.61 58.09-12.13 57.87-12.66 57.23-12.66L57.23-12.66Q56.65-12.66 56.07-12.17 55.5-11.68 55.5-10.86L55.5-10.86Q55.5-10.32 55.79-10 56.07-9.68 56.55-9.48 57.02-9.27 57.61-9.14 58.21-9 58.78-8.87L58.78-8.87Q59.59-8.66 60.32-8.38 61.05-8.09 61.62-7.61 62.2-7.14 62.54-6.45 62.88-5.75 62.88-4.74L62.88-4.74Q62.88-3.32 62.22-2.35 61.56-1.39 60.39-0.8 59.22-0.2 57.65 0.03 56.07 0.27 54.28 0.27L54.28 0.27Q51.54 0.27 49.75-0.14 47.95-0.54 47.24-0.91L47.24-0.91 47.95-4.3 52.52-4.3Q52.49-4.13 52.49-3.98 52.49-3.82 52.49-3.65L52.49-3.65Q52.49-2.88 52.84-2.42 53.2-1.96 54.08-1.96L54.08-1.96Q55.06-1.96 55.48-2.52 55.91-3.08 55.91-3.55L55.91-3.55Q55.91-4.03 55.55-4.38 55.19-4.74 54.65-4.99 54.11-5.25 53.45-5.43 52.79-5.62 52.18-5.79L52.18-5.79Q51.74-5.89 51.18-6.13 50.63-6.36 50.12-6.8 49.61-7.24 49.27-7.94 48.93-8.63 48.93-9.68L48.93-9.68Q48.93-11.17 49.66-12.17 50.39-13.16 51.56-13.77 52.72-14.38 54.2-14.65 55.67-14.92 57.16-14.92L57.16-14.92Q59.02-14.92 60.68-14.59 62.34-14.25 63.38-13.71L63.38-13.71 62.61-10.29ZM74.82-14.92L74.82-14.92Q78.85-14.92 80.68-13.5L80.68-13.5Q82.61-12.01 82.61-8.56L82.61-8.56Q82.61-6.43 81.9-4.72 81.18-3.01 79.9-1.9L79.9-1.9Q77.33 0.27 72.45 0.27L72.45 0.27Q68.29 0.27 66.5-1.32L66.5-1.32Q64.57-2.98 64.57-6.29L64.57-6.29Q64.57-8.49 65.47-10.29 66.36-12.08 68.05-13.27L68.05-13.27Q70.52-14.92 74.82-14.92ZM72.52-2.03L72.52-2.03Q73.37-2.03 73.99-2.98 74.62-3.93 74.99-5.3 75.36-6.67 75.55-8.14 75.74-9.61 75.74-10.69L75.74-10.69Q75.74-11.64 75.55-12.13 75.36-12.62 74.75-12.62L74.75-12.62Q73.84-12.62 73.18-11.64 72.52-10.66 72.12-9.31 71.71-7.95 71.52-6.53 71.34-5.11 71.34-4.23L71.34-4.23Q71.34-2.03 72.52-2.03ZM92.49-12.39L92.69-12.39Q93.4-13.06 94.28-13.64L94.28-13.64Q95.06-14.11 96.11-14.52 97.16-14.92 98.44-14.92L98.44-14.92Q100.2-14.92 101.35-14.03 102.5-13.13 102.5-11.57L102.5-11.57Q102.5-11.13 102.4-10.51 102.3-9.88 102.17-9.2 102.03-8.53 101.88-7.83 101.73-7.14 101.62-6.6L101.62-6.6 100.2 0 93.33 0 95.19-8.83Q95.26-9.27 95.36-9.73 95.47-10.19 95.47-10.56L95.47-10.56Q95.47-11.07 95.21-11.39 94.96-11.71 94.45-11.71L94.45-11.71Q93.84-11.71 93.28-11.27 92.72-10.83 92.42-10.52L92.42-10.52 90.19 0 83.28 0 86.36-14.55 91.88-14.55 92.49-12.39ZM103.11 0L106.19-14.55 111.71-14.55 112.22-12.01 112.45-12.01Q113.23-13.23 114.45-14.08 115.67-14.92 117.66-14.92L117.66-14.92Q117.8-14.92 118.09-14.91 118.38-14.89 118.73-14.81 119.09-14.72 119.48-14.57 119.86-14.42 120.24-14.15L120.24-14.15 118.75-7.17 115.06-7.17Q114.99-9.27 114.69-10.1 114.38-10.93 113.71-10.93L113.71-10.93Q113.37-10.93 112.98-10.78 112.59-10.63 112.18-10.12L112.18-10.12 110.02 0 103.11 0ZM121.15-14.55L128.29-14.55 129.31-4.6 134.65-14.55 138.24-14.55 130.08 0Q128.87 2.13 127.61 3.28 126.36 4.43 124.89 4.97 123.42 5.52 121.64 5.6 119.86 5.69 117.6 5.69L117.6 5.69 118.1 3.35Q119.22 3.35 120.19 3.32 121.15 3.28 121.73 3.11L121.73 3.11Q122.5 2.91 122.84 2.39 123.18 1.86 123.18 0.85L123.18 0.85Q123.18 0.17 123.06-0.71 122.94-1.59 122.81-2.57L122.81-2.57 121.15-14.55ZM137.73-5.58L138.44-8.66 149.1-8.66 148.43-5.58 137.73-5.58ZM151.34-12.28L151.81-14.55Q153.06-14.82 154.01-15.16 154.96-15.5 155.75-16.01 156.55-16.51 157.28-17.26 158-18 158.85-19.09L158.85-19.09 162.34-19.09 161.35-14.55 163.99-14.55 163.55-12.28 160.88-12.28 159.49-5.69Q159.32-4.91 159.22-4.3 159.12-3.69 159.12-3.35L159.12-3.35Q159.12-2.67 159.61-2.5 160.1-2.34 161.46-2.34L161.46-2.34 160.95 0Q160.71 0.07 160.22 0.1 159.73 0.14 159.14 0.19 158.54 0.24 157.92 0.25 157.29 0.27 156.82 0.27L156.82 0.27Q155.97 0.27 155.16 0.15 154.35 0.03 153.71-0.32 153.06-0.68 152.67-1.35 152.28-2.03 152.28-3.18L152.28-3.18Q152.28-3.59 152.34-4.2 152.39-4.81 152.55-5.55L152.55-5.55 153.98-12.28 151.34-12.28ZM178.31-10.29L173.91-10.29Q173.94-10.46 173.98-10.63 174.01-10.8 174.01-11L174.01-11Q174.01-11.61 173.79-12.13 173.57-12.66 172.93-12.66L172.93-12.66Q172.35-12.66 171.78-12.17 171.2-11.68 171.2-10.86L171.2-10.86Q171.2-10.32 171.49-10 171.78-9.68 172.25-9.48 172.72-9.27 173.32-9.14 173.91-9 174.48-8.87L174.48-8.87Q175.3-8.66 176.02-8.38 176.75-8.09 177.33-7.61 177.9-7.14 178.24-6.45 178.58-5.75 178.58-4.74L178.58-4.74Q178.58-3.32 177.92-2.35 177.26-1.39 176.09-0.8 174.92-0.2 173.35 0.03 171.78 0.27 169.98 0.27L169.98 0.27Q167.24 0.27 165.45-0.14 163.65-0.54 162.94-0.91L162.94-0.91 163.65-4.3 168.22-4.3Q168.19-4.13 168.19-3.98 168.19-3.82 168.19-3.65L168.19-3.65Q168.19-2.88 168.54-2.42 168.9-1.96 169.78-1.96L169.78-1.96Q170.76-1.96 171.18-2.52 171.61-3.08 171.61-3.55L171.61-3.55Q171.61-4.03 171.25-4.38 170.9-4.74 170.36-4.99 169.81-5.25 169.15-5.43 168.49-5.62 167.88-5.79L167.88-5.79Q167.45-5.89 166.89-6.13 166.33-6.36 165.82-6.8 165.31-7.24 164.97-7.94 164.64-8.63 164.64-9.68L164.64-9.68Q164.64-11.17 165.36-12.17 166.09-13.16 167.26-13.77 168.43-14.38 169.9-14.65 171.37-14.92 172.86-14.92L172.86-14.92Q174.72-14.92 176.38-14.59 178.04-14.25 179.09-13.71L179.09-13.71 178.31-10.29Z" fill="#1B99D8" transform="translate(0.3400000035762787, 19.09000015258789)"/>
        </g>
      </g>
    </g>
  </g>
</svg>